PathFileType	4	(X/Y/Z)	C:/Users/opensim2020/Desktop/walking_exp_matlab/subject02_walking04_straight_01.trc	
DataRate	CameraRate	NumFrames	NumMarkers	Units	OrigDataRate	OrigDataStartFrame	OrigNumFrames	
100.00	100.00	6	42	mm	100.00	953	302	
Frame#	Time	LFHD			RFHD			LBHD			RBHD			C7			T10			CLAV			STRN			RBAK			LSHO			LUPA			LELB			LFRM			LWRA			LWRB			LFIN			RSHO			RUPA			RELB			RFRM			RWRA			RWRB			RFIN			LASI			RASI			LPSI			RPSI			LTHI			LKNE			LTIB			LANK			LHEE			LTOE			RTHI			RKNE			RTIB			RANK			RHEE			RTOE			*39			*40			*41			
		X1	Y1	Z1	X2	Y2	Z2	X3	Y3	Z3	X4	Y4	Z4	X5	Y5	Z5	X6	Y6	Z6	X7	Y7	Z7	X8	Y8	Z8	X9	Y9	Z9	X10	Y10	Z10	X11	Y11	Z11	X12	Y12	Z12	X13	Y13	Z13	X14	Y14	Z14	X15	Y15	Z15	X16	Y16	Z16	X17	Y17	Z17	X18	Y18	Z18	X19	Y19	Z19	X20	Y20	Z20	X21	Y21	Z21	X22	Y22	Z22	X23	Y23	Z23	X24	Y24	Z24	X25	Y25	Z25	X26	Y26	Z26	X27	Y27	Z27	X28	Y28	Z28	X29	Y29	Z29	X30	Y30	Z30	X31	Y31	Z31	X32	Y32	Z32	X33	Y33	Z33	X34	Y34	Z34	X35	Y35	Z35	X36	Y36	Z36	X37	Y37	Z37	X38	Y38	Z38	X39	Y39	Z39	X40	Y40	Z40	X41	Y41	Z41	X42	Y42	Z42	

227	2.260	-1144.98584	418.52481	1747.07629	-1001.53955	416.94867	1729.69507	-1156.07446	298.44669	1656.03821	-1014.33917	284.95352	1636.31677	-1074.46021	250.45450	1523.05835	-1062.78223	198.35150	1246.86877	-1094.76257	388.56250	1453.68311	-1084.90894	442.60724	1283.72498	-1000.95703	199.23799	1350.63220	-1260.82141	310.76282	1489.94495	-1341.98999	291.64484	1285.82983	-1353.12537	284.61282	1146.40186	-1368.76868	288.80383	1015.68451	-1340.74341	338.59665	887.45990	-1374.39819	293.51202	893.53265	-1380.51208	309.47467	829.06842	-894.57446	345.63773	1494.60791	-805.45221	331.42337	1304.29956	-792.47400	352.89633	1157.11450	-781.58337	395.34970	1042.44849	-811.02344	454.96866	923.70154	-775.17664	411.82358	913.25348	-777.87396	457.07925	856.86322	-1213.25952	440.95343	1000.25433	-957.52234	440.28696	967.92346	-1130.29382	228.46155	1029.69678	-1014.99060	224.76187	1022.78076	-1269.35583	412.97366	688.16022	-1238.17261	406.30374	483.70432	-1236.11841	365.45508	291.83643	-1197.12085	383.74542	71.03748	-1145.27136	350.46515	42.99016	-1210.69604	541.09906	37.07187	-875.86194	368.36072	663.99127	-881.77325	373.17703	465.28827	-881.44379	224.53897	357.60413	-918.38220	82.14202	230.13910	-983.01050	31.31004	211.28151	-888.08087	132.66002	77.44324	-1058.42529	306.78372	1799.91797	-3357.46875	2845.73706	1033.90259			 
228	2.270	-1146.67920	427.42358	1748.51697	-1003.24786	425.88467	1731.26074	-1157.63562	307.65448	1657.26001	-1016.64764	293.49326	1637.68091	-1076.48071	259.81870	1524.51453	-1065.31824	207.07648	1248.48474	-1096.09827	397.87927	1454.90161	-1086.23413	451.54428	1284.76379	-1003.62402	208.01796	1352.02295	-1262.94019	321.63315	1491.44568	-1344.58557	305.44998	1287.13489	-1356.74463	300.56726	1147.66174	-1372.09668	307.81604	1016.92102	-1343.15210	359.92200	889.95624	-1377.43860	315.15231	894.85852	-1383.64722	332.96042	831.11035	-895.90094	354.12155	1495.62866	-807.27655	338.27884	1305.30359	-794.59406	358.59332	1157.95020	-783.53339	399.53387	1042.87708	-812.95490	457.62408	923.05298	-776.83197	414.40625	913.31537	-779.86426	458.46664	856.04285	-1214.76904	449.34567	1000.12421	-958.08313	448.11789	969.78436	-1132.71191	236.96092	1031.12183	-1017.72070	232.50349	1024.63232	-1269.98047	417.65427	688.15338	-1238.75891	408.51300	483.62424	-1236.21094	366.40820	292.06387	-1196.99573	383.78659	71.08994	-1145.27710	350.28036	43.13635	-1210.75842	541.14301	37.04409	-877.28723	382.78098	666.04504	-883.93689	391.21359	467.80380	-884.64441	243.65269	359.32101	-921.82318	103.09727	229.66510	-986.63464	52.92344	208.22752	-887.04456	156.70932	79.62818	-1060.15454	315.40714	1801.15320	-3360.19189	2845.08691	1033.79089			 
229	2.280	-1148.18347	436.36206	1749.84131	-1005.15143	434.51169	1732.48767	-1159.30115	316.70868	1658.24963	-1017.78076	302.97577	1638.84106	-1078.44495	269.17920	1525.89502	-1067.83105	215.91954	1249.95007	-1097.38013	407.12494	1456.03137	-1087.56396	460.45990	1285.71912	-1006.25574	216.72557	1353.29785	-1264.66357	332.24857	1492.87817	-1347.13806	319.25177	1288.61938	-1360.05969	316.64081	1148.92957	-1375.51160	327.06644	1018.33820	-1345.61267	381.47803	892.93640	-1380.29236	337.01102	896.34851	-1386.58826	356.66663	833.40149	-897.55444	362.38705	1496.54883	-809.18304	344.80942	1306.49207	-796.64972	364.05658	1158.62610	-785.56781	403.82184	1043.34668	-814.80334	460.16177	922.57703	-778.66412	416.90948	913.49005	-781.82526	460.01416	855.44727	-1216.22266	457.76666	1000.01227	-958.72437	455.96741	971.84564	-1135.00488	245.42513	1032.45251	-1020.27747	240.27980	1026.30420	-1270.83777	422.47534	688.09967	-1239.23535	410.51465	483.61072	-1236.25305	367.07382	292.35815	-1196.81702	383.85379	71.17694	-1145.03491	350.27829	43.37917	-1210.81848	541.19928	36.96792	-878.57721	397.08737	668.20544	-886.04492	409.23059	470.26010	-887.72827	262.65585	360.43256	-924.92908	124.81783	228.00888	-989.92285	74.73875	204.14104	-886.98218	181.68367	80.71219	-1061.87683	324.14453	1802.14673	-3357.43262	2845.86768	1033.76709			 
230	2.290	-1149.56689	445.28671	1751.09229	-1006.49329	443.40848	1733.73071	-1160.61230	325.91168	1659.32861	-1018.97882	312.34351	1639.58948	-1080.29993	278.46432	1527.14063	-1070.31079	224.69040	1251.31274	-1098.59973	416.33261	1457.09998	-1088.89429	469.33203	1286.59534	-1008.86584	225.39958	1354.37036	-1266.26355	342.87878	1494.47021	-1349.75195	333.24347	1290.38245	-1363.32312	332.77173	1150.44336	-1378.29993	346.19632	1020.02100	-1347.74731	402.98318	896.05548	-1383.14392	359.00616	898.30377	-1389.47900	380.71713	836.26563	-898.93738	370.86774	1497.45703	-810.92975	351.71350	1307.60449	-798.42761	369.80954	1159.67261	-787.27295	407.87265	1043.65820	-816.57727	462.68762	922.22510	-780.34882	419.29562	913.60236	-783.70673	461.91354	854.95374	-1217.71045	466.00168	999.96112	-959.54541	463.71194	974.06720	-1137.03040	253.78432	1033.70471	-1022.65112	248.14496	1027.69653	-1271.56824	427.28329	687.92896	-1239.70972	412.30331	483.61087	-1236.10681	367.45282	292.71655	-1196.63220	383.84778	71.26666	-1144.96851	350.37775	43.28075	-1210.98364	541.20642	36.90442	-879.77423	411.20816	670.38098	-888.37836	426.63129	472.75143	-890.75073	281.77515	360.85715	-928.08527	146.59962	225.21997	-992.71356	97.14639	199.07303	-886.96179	207.97614	81.13040	-1063.47205	332.83252	1803.30798	-3360.21777	2845.07935	1033.79272			 
231	2.300	-1150.86731	454.24863	1752.21863	-1007.48517	452.47708	1735.02966	-1161.99854	335.00168	1660.05603	-1020.28516	321.41754	1640.43396	-1082.24500	287.70752	1528.24866	-1072.79797	233.41202	1252.55017	-1099.82080	425.51276	1458.06335	-1090.14526	477.65326	1287.14087	-1011.43176	234.04391	1355.39026	-1267.68970	353.25046	1495.85901	-1351.90344	346.88480	1292.12732	-1366.18872	349.01559	1152.08728	-1381.18030	365.41943	1022.06366	-1349.80908	424.66306	899.47778	-1385.88123	381.13754	900.61981	-1391.86414	404.55310	839.14874	-900.45660	379.19992	1498.19104	-812.36786	358.63776	1308.67383	-800.10583	375.34174	1160.55005	-789.45367	411.97299	1044.01074	-818.43665	465.70236	922.07208	-782.08746	422.17740	913.96362	-785.76245	463.68332	854.80170	-1219.20813	474.05270	999.93457	-960.59363	471.62946	976.44678	-1138.85876	262.04318	1034.90723	-1024.67273	256.13916	1028.82886	-1272.06348	431.07385	687.68445	-1240.11682	414.04102	483.59503	-1235.84241	367.68875	293.04404	-1196.44666	383.86371	71.35255	-1144.81189	350.37515	43.31736	-1211.15637	541.19452	36.84467	-880.88940	424.92447	672.47662	-890.47595	443.28833	475.29016	-893.67700	300.85321	360.56906	-930.84790	169.19656	221.36646	-995.49060	120.45941	192.33304	-887.16449	235.34016	80.88242	-1064.59534	341.85233	1804.09216	-3357.44580	2845.87891	1033.73694			 
232	2.310	-1151.78687	463.20917	1753.04907	-1008.51404	461.35999	1735.96985	-1163.27576	344.28888	1660.93469	-1021.65448	330.46664	1641.14893	-1084.12659	296.88712	1529.21570	-1075.21082	242.04416	1253.68066	-1101.02039	434.64893	1458.90894	-1091.50696	486.67999	1287.87134	-1014.24097	242.62183	1356.32300	-1269.01465	363.43213	1497.25610	-1354.11072	360.39728	1294.06567	-1369.41064	364.95831	1154.04639	-1384.49658	384.79584	1024.47778	-1351.73499	446.23792	903.23975	-1388.57617	403.33566	903.23779	-1394.47693	428.54675	842.73853	-901.91150	387.50351	1498.86853	-814.04993	365.32458	1309.53699	-801.64185	380.80655	1161.28979	-790.75482	416.13126	1044.42188	-820.24542	468.32953	921.89496	-783.81134	424.78842	914.19440	-787.45374	465.92322	854.54779	-1220.95923	481.95535	1000.02155	-961.91187	479.85461	978.80127	-1140.35266	270.18417	1035.89539	-1026.33862	264.27328	1029.79419	-1272.72900	435.49771	687.37762	-1240.40381	415.81509	483.59995	-1235.63672	368.10376	293.39453	-1196.28821	383.94434	71.53300	-1144.59473	350.40311	43.48365	-1211.33972	541.21552	36.82943	-881.99133	438.57748	674.52533	-892.67212	460.12241	477.62692	-896.66071	319.89291	359.59421	-933.60370	192.20900	216.73209	-997.86780	144.54401	185.10204	-887.65051	263.59781	79.72739	-1065.79590	350.66852	1804.84058	-3357.40088	2845.86865	1033.82727			 
